<?xml version="1.0" encoding="UTF-8" standalone="no"?>
<!-- Created with Inkscape (http://www.inkscape.org/) -->

<svg
   width="160.90112mm"
   height="175.13617mm"
   viewBox="0 0 160.90112 175.13617"
   version="1.1"
   id="svg1"
   xml:space="preserve"
   inkscape:version="1.4.2 (f4327f4, 2025-05-13)"
   sodipodi:docname="mantis.svg"
   xmlns:inkscape="http://www.inkscape.org/namespaces/inkscape"
   xmlns:sodipodi="http://sodipodi.sourceforge.net/DTD/sodipodi-0.dtd"
   xmlns="http://www.w3.org/2000/svg"
   xmlns:svg="http://www.w3.org/2000/svg"><sodipodi:namedview
     id="namedview1"
     pagecolor="#505050"
     bordercolor="#ffffff"
     borderopacity="1"
     inkscape:showpageshadow="0"
     inkscape:pageopacity="0"
     inkscape:pagecheckerboard="1"
     inkscape:deskcolor="#505050"
     inkscape:document-units="mm"
     inkscape:zoom="0.77326038"
     inkscape:cx="280.62992"
     inkscape:cy="451.33568"
     inkscape:window-width="1920"
     inkscape:window-height="1112"
     inkscape:window-x="-8"
     inkscape:window-y="-8"
     inkscape:window-maximized="1"
     inkscape:current-layer="layer1" /><defs
     id="defs1" /><g
     inkscape:label="Layer 1"
     inkscape:groupmode="layer"
     id="layer1"
     transform="translate(-30.519154,-29.067799)"><path
       id="rect1"
       style="fill:#020817;fill-opacity:1;stroke-width:0.218999"
       d="m 181.37355,29.067889 c -8.59235,0.06174 -20.11427,14.578427 -31.03221,39.097356 -1.81792,4.08259 -3.30523,7.53718 -3.30523,7.67705 0,0.771905 0.71828,-0.15523 2.96623,-3.829223 3.66876,-5.99593 13.81648,-15.718727 21.55372,-20.650936 14.44184,-9.206108 16.94637,-10.946732 18.1715,-12.62972 1.138,-1.563269 1.18322,-1.98374 0.41238,-3.844727 -1.06081,-2.561031 -5.99973,-5.839704 -8.76639,-5.8198 z M 40.660184,29.203282 c -0.5894,-0.0198 -1.16807,0.02288 -1.73478,0.129191 -3.13992,0.589065 -7.53753,4.789072 -7.53753,7.198527 0,2.444101 2.38975,4.541953 11.62823,10.208679 4.20557,2.579626 9.60753,6.134161 12.00444,7.899259 5.81502,4.282197 14.70022,13.737531 17.5302,18.654676 1.25774,2.185352 2.38993,3.87642 2.51612,3.75791 0.12619,-0.118534 -1.29817,-3.689931 -3.16518,-7.93595 -11.09747,-25.238136 -22.40063,-39.615325 -31.2415,-39.912292 z m 12.94236,49.216117 c -5.6424,-0.0326 -6.60088,0.150963 -10.53476,2.014864 -8.97805,4.253873 -12.56252,9.640321 -12.54859,18.857769 0.0247,15.915438 12.50623,32.141328 29.04526,37.757898 0.67453,0.22917 1.22878,1.47749 1.52084,3.42511 1.47778,9.85442 6.82353,21.02785 13.26379,27.72234 l 4.73924,4.92632 -1.07435,4.42608 c -1.50835,6.2146 -0.95468,13.54763 1.37511,18.21543 1.60737,3.22043 5.88786,8.3938 6.94531,8.3938 0.24823,0 0.16382,-1.2493 -0.18758,-2.77657 h 5.1e-4 c -1.0552,-4.58559 -0.3924,-14.83927 1.12758,-17.44183 0.71256,-1.22007 1.60321,-2.32053 1.97921,-2.44585 0.376,-0.12545 1.32442,0.91167 2.10736,2.30477 1.953688,3.47611 6.717568,7.72248 10.791076,9.61905 4.05742,1.88912 11.68952,2.1816 16.12253,0.61754 4.11383,-1.45145 8.67876,-5.09107 11.47165,-9.14622 1.36334,-1.97955 2.74043,-3.59926 3.06028,-3.59926 0.31982,0 1.21719,1.39674 1.99419,3.10369 1.51573,3.32977 1.965,11.35635 0.9524,17.01033 l -0.50127,2.79931 1.53738,-1.00717 c 2.08,-1.36289 5.47398,-6.19126 6.76393,-9.62319 1.37996,-3.6714 1.37185,-13.41842 -0.015,-17.79426 -0.99836,-3.15082 -0.98892,-3.2469 0.42065,-4.19096 7.08128,-4.74257 14.87184,-19.3953 17.16071,-32.2771 0.25648,-1.4434 0.8075,-2.4505 1.341,-2.4505 1.85822,0 9.2079,-3.96948 12.9806,-7.01094 16.83699,-13.57353 21.3304,-37.137494 8.83667,-46.341356 -5.08161,-3.743533 -9.29191,-5.04362 -16.3344,-5.04362 -7.00221,0 -11.25937,1.290537 -17,5.153691 l -3.26078,2.194181 -4.08089,-1.83503 c -8.74235,-3.93215 -11.36295,-4.273986 -32.829,-4.280876 -18.433006,-0.0049 -19.905596,0.08178 -24.703916,1.472262 -2.80634,0.813293 -6.54739,2.211213 -8.3137,3.10627 l -3.21169,1.627291 -3.71244,-2.374532 C 64.814094,79.67888 60.706334,78.460515 53.602534,78.419399 Z M 169.2146,84.08727 c 6.37317,0.04227 12.92114,2.590579 15.10244,6.12004 4.76863,7.715763 0.0277,23.64583 -10.05572,33.78812 -6.60151,6.64014 -15.5278,10.90527 -22.82341,10.90527 -2.20941,0 -2.29684,-0.0997 -3.2892,-3.75687 -3.86819,-14.25508 -3.7487,-26.03519 0.35501,-35.0082 3.24665,-7.098989 8.97358,-10.887217 18.00355,-11.908834 0.89007,-0.100701 1.79688,-0.145564 2.70733,-0.139526 z M 54.093984,84.17822 c 0.95541,0.05002 1.90623,0.154794 2.84065,0.318843 6.2306,1.093849 11.91596,4.12885 14.34332,7.656897 4.03085,5.858628 4.82713,9.28084 4.77645,20.53208 -0.0383,8.517 -0.29458,11.06246 -1.61127,16.00781 l -1.5658,5.88026 -2.61328,0.13591 c -1.43745,0.0746 -4.19425,-0.29676 -6.12624,-0.82476 -12.39586,-3.38761 -23.36027,-14.65859 -27.2035,-27.96418 -1.53126,-5.30137 -1.16429,-13.348322 0.72502,-15.895672 2.84887,-3.841198 9.74678,-6.197356 16.43465,-5.847188 z m 57.289526,1.730643 c 19.11703,0.01235 25.60814,0.761602 28.08924,3.242696 1.43391,1.433919 1.3493,1.983009 -1.53582,9.946162 -1.27743,3.525829 -1.29788,3.972909 -0.38499,8.312669 0.9358,4.44872 0.79329,7.6169 -0.45114,10.04849 -0.332,0.6487 -2.96359,3.73597 -5.84822,6.86056 -9.70743,10.51487 -15.81529,19.33345 -20.00085,28.87627 -0.49824,1.13597 -0.72992,1.29337 -0.76067,0.51677 -0.0785,-1.983 -5.54461,-11.87044 -9.33173,-16.88011 -2.025528,-2.67942 -6.631528,-8.17874 -10.235556,-12.22096 -7.02725,-7.88159 -7.82302,-9.56205 -6.98355,-14.7438 1.2212,-7.53779 1.19458,-8.69704 -0.27388,-11.94811 -0.79525,-1.760628 -1.70032,-4.047724 -2.01177,-5.081861 -1.68674,-5.600297 4.08451,-6.945223 29.728936,-6.928776 z M 96.998862,165.57894 c 1.20642,-0.0477 2.93089,0.94419 4.690668,2.80758 5.315,5.62798 5.2609,6.06453 -0.39016,3.14296 -3.986208,-2.06084 -6.233698,-4.16569 -5.578988,-5.22501 0.28877,-0.46723 0.7301,-0.70383 1.27848,-0.72553 z m 27.365248,0.031 c 3.00793,0 2.23465,2.21109 -1.59783,4.56923 -3.94731,2.42882 -6.4394,3.46451 -6.4394,2.67581 0,-0.30962 1.412,-2.06651 3.13727,-3.90416 2.27129,-2.41921 3.62307,-3.34088 4.89996,-3.34088 z" /></g></svg>
